M48
;DRILL file {KiCad 4.0.2-stable} date 2016 June 14, Tuesday 13:28:54
;FORMAT={-:-/ absolute / metric / decimal}
FMAT,2
METRIC,TZ
T1C0.600
T2C0.762
T3C0.800
T4C1.001
T5C1.016
%
G90
G05
M71
T1
X55.609Y-79.483
X55.609Y-82.023
X55.609Y-89.897
X55.609Y-92.437
X85.609Y-79.483
X85.609Y-82.023
X85.609Y-89.897
X85.609Y-92.437
X115.609Y-79.483
X115.609Y-82.023
X115.609Y-89.897
X115.609Y-92.437
X145.609Y-79.483
X145.609Y-82.023
X145.609Y-89.897
X145.609Y-92.437
X175.609Y-79.483
X175.609Y-82.023
X175.609Y-89.897
X175.609Y-92.437
T2
X43.29Y-73.26
X43.29Y-75.8
X43.29Y-78.34
X43.29Y-80.88
X43.29Y-83.42
X43.29Y-85.96
X43.29Y-88.5
X43.29Y-91.04
X43.29Y-93.58
X43.29Y-96.12
X43.29Y-98.66
X43.29Y-101.2
X58.53Y-73.26
X58.53Y-75.8
X58.53Y-78.34
X58.53Y-80.88
X58.53Y-83.42
X58.53Y-85.96
X58.53Y-88.5
X58.53Y-91.04
X58.53Y-93.58
X58.53Y-96.12
X58.53Y-98.66
X58.53Y-101.2
X73.29Y-73.26
X73.29Y-75.8
X73.29Y-78.34
X73.29Y-80.88
X73.29Y-83.42
X73.29Y-85.96
X73.29Y-88.5
X73.29Y-91.04
X73.29Y-93.58
X73.29Y-96.12
X73.29Y-98.66
X73.29Y-101.2
X88.53Y-73.26
X88.53Y-75.8
X88.53Y-78.34
X88.53Y-80.88
X88.53Y-83.42
X88.53Y-85.96
X88.53Y-88.5
X88.53Y-91.04
X88.53Y-93.58
X88.53Y-96.12
X88.53Y-98.66
X88.53Y-101.2
X103.29Y-73.26
X103.29Y-75.8
X103.29Y-78.34
X103.29Y-80.88
X103.29Y-83.42
X103.29Y-85.96
X103.29Y-88.5
X103.29Y-91.04
X103.29Y-93.58
X103.29Y-96.12
X103.29Y-98.66
X103.29Y-101.2
X118.53Y-73.26
X118.53Y-75.8
X118.53Y-78.34
X118.53Y-80.88
X118.53Y-83.42
X118.53Y-85.96
X118.53Y-88.5
X118.53Y-91.04
X118.53Y-93.58
X118.53Y-96.12
X118.53Y-98.66
X118.53Y-101.2
X133.29Y-73.26
X133.29Y-75.8
X133.29Y-78.34
X133.29Y-80.88
X133.29Y-83.42
X133.29Y-85.96
X133.29Y-88.5
X133.29Y-91.04
X133.29Y-93.58
X133.29Y-96.12
X133.29Y-98.66
X133.29Y-101.2
X148.53Y-73.26
X148.53Y-75.8
X148.53Y-78.34
X148.53Y-80.88
X148.53Y-83.42
X148.53Y-85.96
X148.53Y-88.5
X148.53Y-91.04
X148.53Y-93.58
X148.53Y-96.12
X148.53Y-98.66
X148.53Y-101.2
X163.29Y-73.26
X163.29Y-75.8
X163.29Y-78.34
X163.29Y-80.88
X163.29Y-83.42
X163.29Y-85.96
X163.29Y-88.5
X163.29Y-91.04
X163.29Y-93.58
X163.29Y-96.12
X163.29Y-98.66
X163.29Y-101.2
X178.53Y-73.26
X178.53Y-75.8
X178.53Y-78.34
X178.53Y-80.88
X178.53Y-83.42
X178.53Y-85.96
X178.53Y-88.5
X178.53Y-91.04
X178.53Y-93.58
X178.53Y-96.12
X178.53Y-98.66
X178.53Y-101.2
T3
X63.75Y-81.55
X64.Y-61.55
X66.25Y-81.55
X66.5Y-61.55
X93.75Y-81.55
X94.Y-61.55
X96.25Y-81.55
X96.5Y-61.55
X123.75Y-81.55
X124.Y-61.55
X126.25Y-81.55
X126.5Y-61.55
X153.75Y-81.55
X154.Y-61.55
X156.25Y-81.55
X156.5Y-61.55
X183.75Y-81.55
X184.Y-61.55
X186.25Y-81.55
X186.5Y-61.55
T4
X50.Y-92.05
X50.Y-102.21
X50.25Y-73.3
X50.25Y-83.46
X61.1Y-90.2
X61.1Y-100.36
X80.Y-92.05
X80.Y-102.21
X80.25Y-73.3
X80.25Y-83.46
X91.1Y-90.2
X91.1Y-100.36
X110.Y-92.05
X110.Y-102.21
X110.25Y-73.3
X110.25Y-83.46
X121.1Y-90.2
X121.1Y-100.36
X140.Y-92.05
X140.Y-102.21
X140.25Y-73.3
X140.25Y-83.46
X151.1Y-90.2
X151.1Y-100.36
X170.Y-92.05
X170.Y-102.21
X170.25Y-73.3
X170.25Y-83.46
X181.1Y-90.2
X181.1Y-100.36
T5
X46.5Y-80.72
X46.5Y-83.26
X46.5Y-85.8
X46.5Y-93.8
X46.5Y-96.34
X64.5Y-97.82
X64.5Y-100.36
X64.5Y-102.9
X67.6Y-92.9
X67.6Y-95.44
X76.5Y-80.72
X76.5Y-83.26
X76.5Y-85.8
X76.5Y-93.8
X76.5Y-96.34
X94.5Y-97.82
X94.5Y-100.36
X94.5Y-102.9
X97.6Y-92.9
X97.6Y-95.44
X106.5Y-80.72
X106.5Y-83.26
X106.5Y-85.8
X106.5Y-93.8
X106.5Y-96.34
X124.5Y-97.82
X124.5Y-100.36
X124.5Y-102.9
X127.6Y-92.9
X127.6Y-95.44
X136.5Y-80.72
X136.5Y-83.26
X136.5Y-85.8
X136.5Y-93.8
X136.5Y-96.34
X154.5Y-97.82
X154.5Y-100.36
X154.5Y-102.9
X157.6Y-92.9
X157.6Y-95.44
X166.5Y-80.72
X166.5Y-83.26
X166.5Y-85.8
X166.5Y-93.8
X166.5Y-96.34
X184.5Y-97.82
X184.5Y-100.36
X184.5Y-102.9
X187.6Y-92.9
X187.6Y-95.44
T0
M30
